<?xml version="1.0" encoding="UTF-8" standalone="no"?>
<!-- Created with Inkscape (http://www.inkscape.org/) -->

<svg
   xmlns:dc="http://purl.org/dc/elements/1.1/"
   xmlns:cc="http://creativecommons.org/ns#"
   xmlns:rdf="http://www.w3.org/1999/02/22-rdf-syntax-ns#"
   xmlns:svg="http://www.w3.org/2000/svg"
   xmlns="http://www.w3.org/2000/svg"
   xmlns:inkscape="http://www.inkscape.org/namespaces/inkscape"
   version="1.1"
   width="160.45"
   height="67.737503"
   id="svg2"
   xml:space="preserve"><metadata
     id="metadata8"><rdf:RDF><cc:Work
         rdf:about=""><dc:format>image/svg+xml</dc:format><dc:type
           rdf:resource="http://purl.org/dc/dcmitype/StillImage" /></cc:Work></rdf:RDF></metadata><defs
     id="defs6" /><g
     transform="matrix(1.25,0,0,-1.25,0,67.7375)"
     id="g10"><g
       transform="scale(0.1,0.1)"
       id="g12"><path
         d="m 205.789,283.164 -35.992,0 -3.305,18.711 C 151.797,285.313 126.598,279.551 106.797,279.551 42.0039,279.551 0,319.16 0,368.84 c 0,49.683 42.0039,89.289 106.797,89.289 44.398,0 91.797,-18.957 96.894,-61.922 l -55.796,0 c -1.801,14.637 -19.797,23.52 -42.297,23.52 -36.0003,0 -49.7972,-25.446 -49.7972,-50.887 0,-25.442 13.7969,-50.871 49.7972,-50.871 27.601,0 46.199,10.312 49.199,25.918 l -39,0 0,33.117 89.992,0 0,-93.84"
         inkscape:connector-curvature="0"
         id="path14"
         style="fill:#231f20;fill-opacity:1;fill-rule:nonzero;stroke:none" /><path
         d="m 331.148,358.281 c -0.906,13.914 -13.199,25.438 -30.296,25.438 -18.004,0 -30,-10.313 -33.004,-25.438 l 63.3,0 z m -63.3,-22.793 c 0.902,-17.05 13.203,-28.32 34.797,-28.32 12.3,0 24.304,4.551 29.101,13.672 l 47.695,0 c -9.296,-28.809 -42.593,-41.289 -77.394,-41.289 -50.699,0 -85.195,24.492 -85.195,66.25 0,38.164 38.097,65.523 84,65.523 55.793,0 83.695,-33.601 81.293,-75.836 l -114.297,0"
         inkscape:connector-curvature="0"
         id="path16"
         style="fill:#231f20;fill-opacity:1;fill-rule:nonzero;stroke:none" /><path
         d="m 472.004,310.762 c 23.695,0 31.195,18.73 31.195,34.57 0,15.828 -7.5,34.785 -31.195,34.785 -23.703,0 -30.906,-18.957 -30.906,-34.785 0,-15.84 7.203,-34.57 30.906,-34.57 z m 0,100.562 c 48.293,0 82.191,-28.562 82.191,-65.992 0,-37.441 -33.898,-65.781 -82.191,-65.781 -48.305,0 -81.902,28.34 -81.902,65.781 0,37.43 33.597,65.992 81.902,65.992"
         inkscape:connector-curvature="0"
         id="path18"
         style="fill:#231f20;fill-opacity:1;fill-rule:nonzero;stroke:none" /><path
         d="m 562.66,407.723 49.492,0 0,-21.844 0.606,0 c 7.5,15.844 24.894,24.25 46.797,24.25 3.898,0 8.097,-0.246 11.992,-0.965 l 0,-37.199 c -6.602,1.441 -12.598,2.398 -19.492,2.398 -25.203,0 -38.399,-13.925 -38.399,-29.519 l 0,-61.68 -50.996,0 0,124.559"
         inkscape:connector-curvature="0"
         id="path20"
         style="fill:#231f20;fill-opacity:1;fill-rule:nonzero;stroke:none" /><path
         d="m 755.289,380.117 c -22.5,0 -29.699,-15.832 -29.699,-31.199 0,-14.641 8.398,-29.27 29.394,-29.27 21.602,0 30.899,13.438 30.899,29.032 0,15.84 -7.793,31.437 -30.594,31.437 z m 78.895,-81.836 c 0,-20.39 -4.805,-58.808 -77.696,-58.808 -36.308,0 -70.496,6.484 -76.504,39.843 l 50.996,0 c 1.211,-5.507 3.907,-8.886 8.711,-10.8 4.493,-1.914 10.801,-2.637 18.594,-2.637 24.297,0 26.699,13.672 26.699,29.043 l 0,11.758 -0.605,0 c -9.297,-11.524 -24.891,-18.242 -41.387,-18.242 -47.109,0 -68.398,26.894 -68.398,61.921 0,33.118 24.297,60.965 68.398,60.965 18.594,0 32.696,-6.48 41.692,-19.199 l 0.593,0 0,15.598 48.907,0 0,-109.442"
         inkscape:connector-curvature="0"
         id="path22"
         style="fill:#231f20;fill-opacity:1;fill-rule:nonzero;stroke:none" /><path
         d="m 904.633,423.324 -50.996,0 0,31.207 50.996,0 0,-31.207 z m -50.996,-15.601 50.996,0 0,-124.559 -50.996,0 0,124.559"
         inkscape:connector-curvature="0"
         id="path24"
         style="fill:#231f20;fill-opacity:1;fill-rule:nonzero;stroke:none" /><path
         d="m 985.629,304.766 c 24.301,0 32.401,11.035 31.201,36.718 -7.2,-3.593 -20.4,-4.316 -31.494,-6.718 -11.406,-2.168 -21.004,-5.996 -21.004,-15.84 0,-10.078 9.891,-14.16 21.297,-14.16 z m -65.996,64.558 c 0.898,16.321 10.5,26.883 24.297,33.36 13.8,6.242 31.797,8.64 49.492,8.64 36.908,0 72.598,-6.48 72.598,-41.765 l 0,-54.481 c 0,-10.547 0,-22.07 6.01,-31.914 l -51.3,0 c -1.8,3.848 -2.4,7.676 -3,11.758 -13.19,-11.035 -32.707,-15.371 -51.3,-15.371 -29.696,0 -53.094,12.012 -53.094,37.695 0,40.555 55.195,37.43 90.594,43.192 8.69,1.449 13.5,3.847 13.5,11.527 0,9.363 -14.1,12.957 -24.594,12.957 -14.102,0 -23.106,-5.039 -25.508,-15.598 l -47.695,0"
         inkscape:connector-curvature="0"
         id="path26"
         style="fill:#231f20;fill-opacity:1;fill-rule:nonzero;stroke:none" /><path
         d="m 608.793,213.633 -63.906,0 0,-132.9689 -55.789,0 0,132.9689 -63.899,0 0,38.398 183.594,0 0,-38.398"
         inkscape:connector-curvature="0"
         id="path28"
         style="fill:#231f20;fill-opacity:1;fill-rule:nonzero;stroke:none" /><path
         d="m 678.07,155.781 c -0.898,13.926 -13.191,25.449 -30.293,25.449 -17.996,0 -30,-10.312 -32.996,-25.449 l 63.289,0 z m -63.289,-22.793 c 0.899,-17.05 13.192,-28.32 34.793,-28.32 12.305,0 24.297,4.551 29.102,13.672 l 47.695,0 C 717.074,89.5313 683.773,77.0508 648.98,77.0508 c -50.695,0 -85.195,24.4922 -85.195,66.2502 0,38.164 38.094,65.527 83.992,65.527 55.801,0 83.692,-33.594 81.301,-75.84 l -114.297,0"
         inkscape:connector-curvature="0"
         id="path30"
         style="fill:#231f20;fill-opacity:1;fill-rule:nonzero;stroke:none" /><path
         d="m 849.281,159.629 c -0.301,10.566 -12,18.008 -24.902,18.008 -28.496,0 -32.996,-19.453 -32.996,-36.739 0,-16.074 8.699,-32.636 30.301,-32.636 17.695,0 26.699,8.164 29.101,21.367 l 49.492,0 c -4.5,-33.3595 -36.894,-52.5782 -78.3,-52.5782 -46.797,0 -81.59,25.6832 -81.59,63.8472 0,39.61 31.492,67.93 81.59,67.93 38.703,0 73.203,-16.328 76.796,-49.199 l -49.492,0"
         inkscape:connector-curvature="0"
         id="path32"
         style="fill:#231f20;fill-opacity:1;fill-rule:nonzero;stroke:none" /><path
         d="m 910.719,252.031 50.996,0 0,-63.847 0.594,0 c 7.804,12.734 28.808,20.644 47.401,20.644 51.9,0 56.1,-30.234 56.1,-48.242 l 0,-79.9219 -51,0 0,60.2339 c 0,17.051 2.4,34.336 -25.497,34.336 -19.2,0 -27.598,-12.968 -27.598,-26.64 l 0,-67.9299 -50.996,0 0,171.3669"
         inkscape:connector-curvature="0"
         id="path34"
         style="fill:#231f20;fill-opacity:1;fill-rule:nonzero;stroke:none" /><path
         d="m 1268.58,16.1328 c 2.31,0 5.56,0.3711 5.56,3.8086 0,3.1641 -2.41,3.8281 -4.97,3.8281 l -4.75,0 0,-7.6367 4.16,0 z m -4.96,8.4375 5.63,0 c 3.89,0 5.69,-1.7187 5.69,-4.6289 0,-2.9297 -2.08,-4.2773 -4.49,-4.4726 l 5.29,-8.08599 -1.01,0 -5.15,7.98829 c -0.41,-0.0391 -0.8,-0.0391 -1.25,-0.0391 l -3.91,0 0,-7.94919 -0.8,0 0,17.18749 z m 5.04,-22.46092 c 7.84,0 14.15,6.30859 14.15,14.14062 0,7.8516 -6.31,14.1602 -14.15,14.1602 -7.84,0 -14.15,-6.3086 -14.15,-14.1602 0,-7.83203 6.31,-14.14062 14.15,-14.14062 z m 0,29.10152 c 8.27,0 14.95,-6.6796 14.95,-14.9609 0,-8.26172 -6.68,-14.94141 -14.95,-14.94141 -8.27,0 -14.95,6.67969 -14.95,14.94141 0,8.2813 6.68,14.9609 14.95,14.9609"
         inkscape:connector-curvature="0"
         id="path36"
         style="fill:#231f20;fill-opacity:1;fill-rule:nonzero;stroke:none" /><path
         d="m 1134.19,242.5 52.8,-198.0469 -52.8,0 0,198.0469 z"
         inkscape:connector-curvature="0"
         id="path38"
         style="fill:none;stroke:#231f20;stroke-width:8;stroke-linecap:butt;stroke-linejoin:miter;stroke-miterlimit:4;stroke-opacity:1;stroke-dasharray:none" /><path
         d="m 1239.8,242.5 -52.81,-198.0469 52.81,0 0,198.0469 z"
         inkscape:connector-curvature="0"
         id="path40"
         style="fill:none;stroke:#231f20;stroke-width:8;stroke-linecap:butt;stroke-linejoin:miter;stroke-miterlimit:4;stroke-opacity:1;stroke-dasharray:none" /><path
         d="m 1213.39,145.527 -26.4,396.157 -26.41,-396.157"
         inkscape:connector-curvature="0"
         id="path42"
         style="fill:none;stroke:#231f20;stroke-width:8;stroke-linecap:butt;stroke-linejoin:miter;stroke-miterlimit:4;stroke-opacity:1;stroke-dasharray:none" /><path
         d="m 1134.19,4.00391 105.609,0 0,20.1758 -105.609,0 0,-20.1758 z"
         inkscape:connector-curvature="0"
         id="path44"
         style="fill:none;stroke:#231f20;stroke-width:8;stroke-linecap:butt;stroke-linejoin:miter;stroke-miterlimit:4;stroke-opacity:1;stroke-dasharray:none" /></g></g></svg>